<svg width="239" height="89" viewBox="0 0 239 89" fill="none" xmlns="http://www.w3.org/2000/svg">
  <path d="M130.73 68.6616C126.6 72.9236 120.342 75.2426 113.226 75.2426H92.9539C90.7447 75.2426 88.9539 73.4518 88.9539 71.2426V14.7602C88.9539 14.1961 89.4304 13.7261 90.0022 13.7261H113.257C120.374 13.7261 126.632 16.0764 130.762 20.307C137.18 26.8254 138.069 35.9134 138.069 44.4373C138.037 52.9613 137.148 62.1747 130.73 68.6616ZM122.026 27.2641C119.929 25.1958 116.847 23.7856 113.226 23.7856H104.295C102.086 23.7856 100.295 25.5764 100.295 27.7856V64.1489C100.295 64.713 100.772 65.1831 101.344 65.1831H113.226C116.847 65.1831 119.897 63.8042 122.026 61.7046C126.41 57.3799 126.505 50.0782 126.505 44.4373C126.505 38.7965 126.41 31.6201 122.026 27.2641Z" fill="currentColor"/>
  <path d="M181.911 74.5845L178.353 64.1803C178.226 63.7729 177.813 63.4909 177.368 63.4909H154.049C153.604 63.4909 153.191 63.7729 153.064 64.1803L149.474 74.5845C149.347 74.9919 148.934 75.274 148.49 75.274H139.276C138.546 75.274 138.069 74.5845 138.292 73.8951L159.482 14.4155C159.641 14.0081 160.022 13.7261 160.467 13.7261H171.395C171.84 13.7261 172.221 14.0081 172.38 14.4155L193.57 73.8951C193.792 74.5532 193.316 75.274 192.585 75.274H182.927C182.451 75.274 182.038 74.9919 181.911 74.5845ZM165.168 28.9563L157.258 52.0525C157.035 52.7106 157.544 53.4 158.243 53.4H173.142C173.841 53.4 174.35 52.7106 174.127 52.0525L166.217 28.9563C166.058 28.4549 165.359 28.4549 165.168 28.9563Z" fill="currentColor"/>
  <path d="M217.937 51.6764V74.2711C217.937 74.8352 217.46 75.3053 216.889 75.3053H207.517C206.945 75.3053 206.468 74.8352 206.468 74.2711V51.6764L185.723 15.2616C185.342 14.5722 185.818 13.7261 186.644 13.7261H196.588C196.969 13.7261 197.319 13.9141 197.478 14.2275L212.091 39.4546C212.314 39.7993 212.822 39.7993 213.044 39.4546L227.658 14.2275C227.849 13.9141 228.198 13.7261 228.548 13.7261H237.952C238.746 13.7261 239.254 14.5722 238.841 15.2616L217.937 51.6764Z" fill="currentColor"/>
  <path d="M43.5238 89H35.1367C34.4695 89 33.9294 88.4673 33.9294 87.8092V51.1437C33.9294 50.4856 34.4695 49.9528 35.1367 49.9528H43.5238C44.1909 49.9528 44.731 50.4856 44.731 51.1437V87.8092C44.6992 88.4673 44.1909 89 43.5238 89Z" fill="currentColor"/>
  <path d="M22.4609 72.5162C22.1749 73.1116 21.4125 73.3623 20.8089 73.0489C14.8045 69.8838 9.75316 65.2458 6.09969 59.5736C2.09677 53.3373 0 46.1609 0 38.7965C0 17.3926 17.6319 0 39.3303 0C61.0287 0 78.6606 17.3926 78.6606 38.7965C78.6606 46.1609 76.5639 53.3373 72.561 59.5423C68.9075 65.2144 63.8562 69.8525 57.8518 73.0176C57.2482 73.331 56.5175 73.1116 56.1998 72.4849L52.4828 65.0577C52.1969 64.4937 52.4193 63.8042 52.9911 63.4908C62.363 58.4454 68.0815 48.8246 67.8591 38.2011C67.5732 23.5035 55.6915 11.3757 40.8235 10.6236C24.3988 9.8088 10.7698 22.7201 10.7698 38.7338C10.7698 49.138 16.4565 58.5081 25.6695 63.4595C26.2414 63.7729 26.4638 64.4623 26.1779 65.0264L22.4609 72.5162Z" fill="currentColor"/>
</svg>
